<?xml version="1.0" encoding="UTF-8"?>
<svg id="a"
  xmlns="http://www.w3.org/2000/svg" viewBox="0 -20 1511.05 129.07">
  <defs>
    <style>.a{fill:#034EA2;}.b{fill:#444;}.c{fill:#b0d235;}</style>
  </defs>
  <g>
    <path class="a" d="M205.16,1.32h-14.87c-1.79,0-3.24,1.45-3.24,3.24V59.15c0,5.76-8.04,7.61-17.89,7.61h-22.1c-9.86,0-17.89-1.85-17.89-7.61V4.57c0-1.79-1.45-3.24-3.24-3.24h-14.87c-1.79,0-3.24,1.45-3.24,3.24,0,0,0,46.2,0,55.84s4.19,15.73,12.18,20.52c7.98,4.79,26.58,4.57,32.09,4.57h12.05c5.51,0,24.11,.22,32.09-4.57,7.98-4.79,12.18-10.88,12.18-20.52s0-55.84,0-55.84c0-1.79-1.45-3.24-3.24-3.24Z"/>
    <path class="a" d="M641.48,1.89c.35-.35,.84-.57,1.38-.57h24.38c1.09,0,1.97,.88,1.97,1.97,0,.64-.3,1.21-.78,1.57l-35.78,31.15c-.36,.36-.85,.58-1.39,.58-.58,0-1.1-.25-1.46-.64l-12.19-10.61c-.32-.35-.51-.81-.51-1.32,0-.61,.27-1.15,.7-1.51l23.68-20.61Z"/>
    <path class="a" d="M641.48,84.93c.35,.35,.84,.57,1.38,.57h24.38c1.09,0,1.97-.88,1.97-1.97,0-.64-.3-1.21-.78-1.57l-35.78-31.15c-.36-.35-.85-.57-1.39-.57-.58,0-1.1,.25-1.46,.64l-12.19,10.61c-.32,.35-.51,.81-.51,1.32,0,.61,.27,1.15,.7,1.51l23.68,20.61Z"/>
    <path class="c" d="M576.41,84.98c-.35,.32-.82,.52-1.33,.52h-24.41c-1.09,0-1.97-.88-1.97-1.97,0-.54,.22-1.04,.58-1.39l42.77-37.22c.43-.36,.7-.9,.7-1.51,0-.57-.24-1.09-.63-1.44l-42.72-37.17c-.43-.36-.7-.9-.7-1.5,0-1.09,.88-1.97,1.97-1.97h24.41c.51,0,.98,.2,1.33,.52l46.04,40.08c.42,.36,.68,.89,.68,1.49s-.26,1.13-.68,1.49l-46.04,40.08Z"/>
    <path class="a" d="M272.12,22.03c0-1.09,.88-1.97,1.97-1.97h30.27c1.79,0,3.24-1.45,3.24-3.24V4.57c0-1.79-1.45-3.24-3.24-3.24h-85.84c-1.79,0-3.24,1.45-3.24,3.24v12.25c0,1.79,1.45,3.24,3.24,3.24h30.27c1.09,0,1.97,.88,1.97,1.97v60.22c0,1.79,1.45,3.24,3.24,3.24h14.81c1.79,0,3.24-1.45,3.24-3.24l.05-60.22Z"/>
    <path class="a" d="M77.24,53.55c.27,.22,.59,.4,.96,.4,.75,0,1.36-.61,1.36-1.36V4.56c0-1.79,1.45-3.24,3.24-3.24h14.86c1.79,0,3.24,1.45,3.24,3.24V74.14c0,7.1-2.77,10.2-5.49,11.39-2.71,1.19-10.95,.72-15.86-3.56-4.92-4.28-53.25-46.35-53.25-46.35,0,0-2.85-2.49-3.05-2.65-.2-.16-.45-.25-.73-.25-.65,0-1.18,.53-1.18,1.18v48.34c0,1.79-1.45,3.24-3.24,3.24H3.24c-1.79,0-3.24-1.45-3.24-3.24V12.72C0,5.62,2.77,2.51,5.49,1.32c2.71-1.19,10.95-.73,15.86,3.55,4.92,4.28,53.25,46.36,53.25,46.36,0,0,2.47,2.18,2.64,2.32Z"/>
    <path class="a" d="M489.87,53.55c.27,.22,.59,.4,.96,.4,.75,0,1.36-.61,1.36-1.36V4.56c0-1.79,1.45-3.24,3.24-3.24h14.86c1.79,0,3.24,1.45,3.24,3.24V74.14c0,7.1-2.77,10.2-5.49,11.39-2.71,1.19-10.95,.72-15.86-3.56-4.92-4.28-53.25-46.35-53.25-46.35,0,0-2.85-2.49-3.05-2.65-.2-.16-.45-.25-.73-.25-.65,0-1.18,.53-1.18,1.18v48.34c0,1.79-1.45,3.24-3.24,3.24h-14.86c-1.79,0-3.24-1.45-3.24-3.24V12.72c0-7.1,2.77-10.2,5.49-11.4,2.71-1.19,10.95-.73,15.86,3.55,4.92,4.28,53.25,46.36,53.25,46.36,0,0,2.47,2.18,2.64,2.32Z"/>
    <rect class="a" x="520.46" y="1.32" width="21.35" height="84.17" rx="3.24" ry="3.24"/>
    <path class="a" d="M405.25,82.25L352.67,6.32h0c-2.26-3.28-6.04-5.43-10.33-5.43h0c-4.28,0-8.07,2.15-10.33,5.43h0l-52.58,75.94c-.29,.34-.46,.79-.46,1.27,0,1.09,.88,1.97,1.97,1.97h19.22c.73,0,1.37-.4,1.71-.99l13.61-19.66c.32-.66,.99-1.12,1.78-1.12h50.16c.78,0,1.46,.46,1.78,1.12l13.61,19.66c.34,.59,.98,.99,1.71,.99h19.22c1.09,0,1.97-.88,1.97-1.97,0-.48-.17-.93-.46-1.27Zm-52.03-37.27h-21.75c-.65,0-1.18-.53-1.18-1.18,0-.33,.13-.62,.35-.84l10.7-15.45c.06-.1,.16-.16,.24-.24,.07-.06,.12-.14,.19-.18,.14-.08,.31-.11,.48-.13,.03,0,.06-.02,.1-.03,.03,0,.06,.02,.1,.03,.17,.01,.34,.05,.48,.13,.08,.04,.13,.12,.19,.18,.08,.08,.18,.14,.24,.24l10.7,15.45c.21,.21,.35,.51,.35,.84,0,.65-.53,1.18-1.18,1.18Z"/>
  </g>
  <g>
    <path class="b" d="M723.85,1.44h34.68c9.48,0,17.16,2.76,21.84,7.44,3.48,3.48,5.4,7.92,5.4,13.21v.24c0,11.41-7.44,17.17-14.28,19.93,10.08,2.64,18.96,8.4,18.96,20.05v.24c0,14.05-12,22.93-30.12,22.93h-36.48V1.44Zm55.56,21.25c0-9.24-7.56-15.49-21-15.49h-28.32V40.22h27.72c12.6,0,21.6-6.12,21.6-17.29v-.24Zm-20.88,23.29h-28.44v33.74h30.48c14.4,0,23.52-6.6,23.52-17.17v-.24c0-10.33-9-16.33-25.56-16.33Z"/>
    <path class="b" d="M806.77,43.7v-.24c0-22.93,16.92-43.46,42.36-43.46s42.12,20.29,42.12,43.22v.24c0,22.93-16.92,43.46-42.36,43.46s-42.12-20.29-42.12-43.22Zm78,0v-.24c0-20.77-15.12-37.82-35.88-37.82s-35.64,16.81-35.64,37.58v.24c0,20.77,15.12,37.82,35.88,37.82s35.64-16.81,35.64-37.58Z"/>
    <path class="b" d="M908.77,43.7v-.24c0-22.93,16.92-43.46,42.36-43.46s42.12,20.29,42.12,43.22v.24c0,22.93-16.92,43.46-42.36,43.46s-42.12-20.29-42.12-43.22Zm78,0v-.24c0-20.77-15.12-37.82-35.88-37.82s-35.64,16.81-35.64,37.58v.24c0,20.77,15.12,37.82,35.88,37.82s35.64-16.81,35.64-37.58Z"/>
    <path class="b" d="M1031.17,7.2h-29.28V1.44h64.8V7.2h-29.28V85.48h-6.24V7.2Z"/>
    <path class="b" d="M1075.33,43.7v-.24c0-23.77,17.76-43.46,42-43.46,15,0,24,5.52,32.64,13.45l-4.44,4.56c-7.32-7.08-15.72-12.37-28.32-12.37-20.16,0-35.4,16.45-35.4,37.58v.24c0,21.25,15.48,37.82,35.52,37.82,12.12,0,20.4-4.68,28.92-13.09l4.2,4.08c-8.88,8.76-18.48,14.65-33.36,14.65-24,0-41.76-19.09-41.76-43.22Z"/>
    <path class="b" d="M1199.53,.84h6l39.12,84.64h-6.84l-10.68-23.53h-49.56l-10.68,23.53h-6.48L1199.53,.84Zm24.96,55.47l-22.08-48.62-22.2,48.62h44.28Z"/>
    <path class="b" d="M1262.41,1.44h5.88l33.72,49.7L1335.73,1.44h5.88V85.48h-6.24V12.49l-33.24,48.38h-.48l-33.24-48.38V85.48h-6V1.44Z"/>
    <path class="b" d="M1366.57,1.44h30.48c18.48,0,31.2,9.48,31.2,25.69v.24c0,17.65-15.24,26.77-32.76,26.77h-22.68v31.33h-6.24V1.44Zm29.28,46.94c15.6,0,26.16-8.16,26.16-20.65v-.24c0-13.33-10.32-20.29-25.44-20.29h-23.76V48.38h23.04Z"/>
    <path class="b" d="M1441.33,73.23l4.08-4.68c9.24,8.52,17.76,12.49,30.12,12.49s21.24-7.08,21.24-16.69v-.24c0-8.88-4.68-14.05-23.76-17.89-20.16-4.08-28.32-10.92-28.32-23.65v-.24c0-12.49,11.4-22.09,27-22.09,12.24,0,20.28,3.36,28.8,10.2l-3.96,4.92c-7.92-6.84-15.84-9.48-25.08-9.48-12.36,0-20.52,7.08-20.52,15.85v.24c0,8.88,4.56,14.29,24.48,18.37,19.44,3.96,27.6,10.93,27.6,23.17v.24c0,13.57-11.64,22.93-27.84,22.93-13.44,0-23.76-4.44-33.84-13.45Z"/>
  </g>
</svg>
